<svg xmlns="http://www.w3.org/2000/svg" xmlns:svg="http://www.w3.org/2000/svg" xmlns:xlink="http://www.w3.org/1999/xlink" id="svg2" width="540" height="540" version="1.1"><metadata id="metadata43"/><desc id="desc4">European flag</desc><defs id="defs6"><g id="s"><g id="c"><path id="t" d="M 0,0 V 1 H 0.5 z" transform="matrix(0.95105652,0.30901699,-0.30901699,0.95105652,0,-1)"/><use id="use11" width="810" height="540" x="0" y="0" transform="scale(-1,1)" xlink:href="#t"/></g><g id="a"><use id="use14" width="810" height="540" x="0" y="0" transform="matrix(0.30901699,0.95105652,-0.95105652,0.30901699,0,0)" xlink:href="#c"/><use id="use16" width="810" height="540" x="0" y="0" transform="matrix(-0.80901699,0.58778525,-0.58778525,-0.80901699,0,0)" xlink:href="#c"/></g><use id="use18" width="810" height="540" x="0" y="0" transform="scale(-1,1)" xlink:href="#a"/></g></defs><rect id="rect20" width="540" height="540" x="0" y="0" style="fill:#039"/><g id="g22" transform="matrix(37.612903,0,0,37.612903,270,270.72697)" style="fill:#fe1;fill-opacity:1"><use id="use24" width="810" height="540" x="0" y="-6" xlink:href="#s" style="fill:#fe1;fill-opacity:1"/><use id="use26" width="810" height="540" x="0" y="6" xlink:href="#s" style="fill:#fe1;fill-opacity:1"/><g id="l" style="fill:#fe1;fill-opacity:1"><use id="use29" width="810" height="540" x="-6" y="0" xlink:href="#s" style="fill:#fe1;fill-opacity:1"/><use id="use31" width="810" height="540" x="0" y="0" transform="matrix(-0.80901699,-0.58778525,0.58778525,-0.80901699,-3,-5.1961524)" xlink:href="#s" style="fill:#fe1;fill-opacity:1"/><use id="use33" width="810" height="540" x="0" y="0" transform="matrix(-0.80901699,0.58778525,-0.58778525,-0.80901699,-5.1961524,-3)" xlink:href="#s" style="fill:#fe1;fill-opacity:1"/><use id="use35" width="810" height="540" x="0" y="0" transform="matrix(0.30901699,0.95105652,-0.95105652,0.30901699,-5.1961524,3)" xlink:href="#s" style="fill:#fe1;fill-opacity:1"/><use id="use37" width="810" height="540" x="0" y="0" transform="matrix(0.30901699,0.95105652,-0.95105652,0.30901699,-3,5.1961524)" xlink:href="#s" style="fill:#fe1;fill-opacity:1"/></g><use id="use39" width="810" height="540" x="0" y="0" transform="scale(-1,1)" xlink:href="#l" style="fill:#fe1;fill-opacity:1"/></g><g id="g3833" transform="matrix(0.56457312,-0.56457312,0.56457312,0.56457312,718.67321,-300.80982)"><g id="g3838" transform="matrix(0.80713651,0.80713651,-0.80713651,0.80713651,-723.07474,-100.18086)"><rect style="color:#000;fill:#fe1;fill-opacity:1;fill-rule:nonzero;stroke:none;stroke-width:10;marker:none;visibility:visible;display:inline;overflow:visible;enable-background:accumulate" id="rect3810" width="313.116" height="45.574" x="-110.667" y="-666.739" transform="matrix(0,1,-1,0,0,0)"/><path style="color:#000;fill:#fe1;fill-opacity:1;fill-rule:nonzero;stroke:none;stroke-width:10;marker:none;visibility:visible;display:inline;overflow:visible;enable-background:accumulate" id="rect3810-9" d="m 555.33089,-132.61204 c 0,0 14.43702,0 21.94486,0 0,10.97243 5.97243,16.45864 10.97243,16.45864 19.82654,0 17.91729,-10.97243 32.91729,-10.97243 83.61401,0 98.75186,-5.48621 142.64158,49.375937 0,0 -28.07833,-16.458645 -43.88972,-16.458645 -25,0 -21.94486,10.97243 -38.4035,16.458645 -18.66319,6.221063 -34.91325,5.486214 -60.34836,5.486214 -7.58282,0 -20.43058,-10.972429 -32.91729,-10.972429 -5,0 -10.97243,5.486215 -10.97243,16.458644 -10,0 -21.94486,0 -21.94486,0 z"/></g></g><use id="use3007" width="540" height="540" x="0" y="0" transform="matrix(0.75986845,0.75986845,-0.75986845,0.75986845,-321.59764,-414.90473)" xlink:href="#g3833"/><path style="color:#000;fill:#fe1;fill-opacity:1;fill-rule:nonzero;stroke:#039;stroke-width:11.03893375;stroke-opacity:1;marker:none;visibility:visible;display:inline;overflow:visible;enable-background:accumulate" id="path3788" d="m 166.21058,117.76314 c -26.46804,30.98093 -42.44743,71.19221 -42.44743,115.13417 0,97.94272 79.39681,177.33954 177.33953,177.33954 43.94196,0 84.15324,-15.9794 115.13417,-42.44743 C 278.93354,366.03958 167.96041,255.06646 166.21058,117.76314 z"/></svg>