<svg xmlns="http://www.w3.org/2000/svg" xmlns:svg="http://www.w3.org/2000/svg" id="Layer_1" width="304.6" height="401" x="0" y="0" enable-background="new 0 0 792 612" version="1.1" viewBox="0 0 304.6 401" xml:space="preserve"><metadata id="metadata513"/><circle id="circle263" cx="262.1" cy="21.4" r="21.4" style="fill:#fc0;fill-opacity:1;stroke:none"/><g id="g265" transform="translate(-243.7,-789.39996)" style="stroke:none;stroke-opacity:1;fill:#fc0;fill-opacity:1"><path id="path267" d="m 396,1096.6 c -65.5,0 -122.6,-23.5 -152.3,-58.3 22.5,62.4 82.2,106.9 152.3,106.9 70.1,0 129.8,-44.6 152.3,-106.9 -29.7,34.7 -86.8,58.3 -152.3,58.3 z" style="stroke:none;stroke-opacity:1;fill:#fc0;fill-opacity:1"/><path id="path269" d="m 396,870.2 c 65.5,0 122.6,23.5 152.3,58.3 C 525.8,866.1 466.1,821.6 396,821.6 c -70.1,0 -129.8,44.6 -152.3,106.9 29.8,-34.8 86.8,-58.3 152.3,-58.3 z" style="stroke:none;stroke-opacity:1;fill:#fc0;fill-opacity:1"/></g><circle id="circle271" cx="42.8" cy="375.2" r="25.8" style="fill:#fc0;fill-opacity:1;stroke:none"/><circle id="circle273" cx="17.4" cy="50.7" r="15.7" style="fill:#fc0;fill-opacity:1;stroke:none"/></svg>