<svg xmlns="http://www.w3.org/2000/svg" xmlns:svg="http://www.w3.org/2000/svg" xmlns:xlink="http://www.w3.org/1999/xlink" id="svg2" width="120.154" height="121.482" version="1.0"><metadata id="metadata371"/><defs id="defs4"><linearGradient id="linearGradient2795"><stop style="stop-color:#b8b8b8;stop-opacity:.49803922" id="stop2797" offset="0"/><stop style="stop-color:#7f7f7f;stop-opacity:0" id="stop2799" offset="1"/></linearGradient><linearGradient id="linearGradient2787"><stop style="stop-color:#7f7f7f;stop-opacity:.5" id="stop2789" offset="0"/><stop style="stop-color:#7f7f7f;stop-opacity:0" id="stop2791" offset="1"/></linearGradient><linearGradient id="linearGradient3676"><stop style="stop-color:#b2b2b2;stop-opacity:.5" id="stop3678" offset="0"/><stop style="stop-color:#b3b3b3;stop-opacity:0" id="stop3680" offset="1"/></linearGradient><linearGradient id="linearGradient3236"><stop style="stop-color:#f4f4f4;stop-opacity:1" id="stop3244" offset="0"/><stop style="stop-color:white;stop-opacity:1" id="stop3240" offset="1"/></linearGradient><linearGradient id="linearGradient4671"><stop style="stop-color:#ffd43b;stop-opacity:1" id="stop4673" offset="0"/><stop style="stop-color:#ffe873;stop-opacity:1" id="stop4675" offset="1"/></linearGradient><linearGradient id="linearGradient4689"><stop style="stop-color:#5a9fd4;stop-opacity:1" id="stop4691" offset="0"/><stop style="stop-color:#306998;stop-opacity:1" id="stop4693" offset="1"/></linearGradient><linearGradient id="linearGradient2987" x1="224.24" x2="-65.309" y1="144.757" y2="144.757" gradientTransform="translate(100.2702,99.61116)" gradientUnits="userSpaceOnUse" xlink:href="#linearGradient4671"/><linearGradient id="linearGradient2990" x1="172.942" x2="26.67" y1="77.476" y2="76.313" gradientTransform="translate(100.2702,99.61116)" gradientUnits="userSpaceOnUse" xlink:href="#linearGradient4689"/><linearGradient id="linearGradient2587" x1="172.942" x2="26.67" y1="77.476" y2="76.313" gradientTransform="translate(100.2702,99.61116)" gradientUnits="userSpaceOnUse" xlink:href="#linearGradient4689"/><linearGradient id="linearGradient2589" x1="224.24" x2="-65.309" y1="144.757" y2="144.757" gradientTransform="translate(100.2702,99.61116)" gradientUnits="userSpaceOnUse" xlink:href="#linearGradient4671"/><linearGradient id="linearGradient2248" x1="172.942" x2="26.67" y1="77.476" y2="76.313" gradientTransform="translate(100.2702,99.61116)" gradientUnits="userSpaceOnUse" xlink:href="#linearGradient4689"/><linearGradient id="linearGradient2250" x1="224.24" x2="-65.309" y1="144.757" y2="144.757" gradientTransform="translate(100.2702,99.61116)" gradientUnits="userSpaceOnUse" xlink:href="#linearGradient4671"/><linearGradient id="linearGradient2255" x1="224.24" x2="-65.309" y1="144.757" y2="144.757" gradientTransform="matrix(0.562541,0,0,0.567972,-11.5974,-7.60954)" gradientUnits="userSpaceOnUse" xlink:href="#linearGradient4671"/><linearGradient id="linearGradient2258" x1="172.942" x2="26.67" y1="76.176" y2="76.313" gradientTransform="matrix(0.562541,0,0,0.567972,-11.5974,-7.60954)" gradientUnits="userSpaceOnUse" xlink:href="#linearGradient4689"/><radialGradient id="radialGradient2801" cx="61.519" cy="132.286" r="29.037" fx="61.519" fy="132.286" gradientTransform="matrix(1,0,0,0.177966,0,108.7434)" gradientUnits="userSpaceOnUse" xlink:href="#linearGradient2795"/></defs><path style="fill:none;fill-opacity:1;stroke:#fc0;stroke-width:3;stroke-miterlimit:4;stroke-dasharray:none;stroke-opacity:1" id="path1948" d="M 56.401442,1.5009215 C 51.817789,1.5222195 47.440503,1.9131392 43.588942,2.5946716 32.242726,4.5991754 30.182693,8.7947737 30.182692,16.532171 l 0,10.21875 26.8125,0 0,3.40625 -26.8125,0 -10.0625,0 c -7.792459,0 -14.6157587,4.683717 -16.7499997,13.59375 -2.46181996,10.212966 -2.57101506,16.586023 0,27.25 1.9059283,7.937852 6.4575432,13.593748 14.2499997,13.59375 l 9.21875,0 0,-12.25 c 0,-8.849902 7.657144,-16.656248 16.75,-16.65625 l 26.78125,0 c 7.454951,0 13.406253,-6.138164 13.40625,-13.625 l 0,-25.53125 c 0,-7.2663383 -6.12998,-12.7247768 -13.40625,-13.9374994 C 65.764205,1.8279462 60.985095,1.4796232 56.401442,1.5009215 Z m -14.5,8.2187502 c 2.769547,0 5.03125,2.2986453 5.03125,5.1249993 -2e-6,2.816336 -2.261703,5.09375 -5.03125,5.09375 -2.779476,-1e-6 -5.03125,-2.277415 -5.03125,-5.09375 -1e-6,-2.826353 2.251774,-5.1249993 5.03125,-5.1249993 z"/><path style="fill:#fc0;fill-opacity:1" id="path1950" d="m 87.120192,30.157171 0,11.90625 c 0,9.230755 -7.825895,16.999999 -16.75,17 l -26.78125,0 c -7.335833,0 -13.406249,6.278483 -13.40625,13.625 l 0,25.531247 c 0,7.266342 6.318588,11.540322 13.40625,13.625002 8.487331,2.49561 16.626237,2.94663 26.78125,0 6.750155,-1.95439 13.406253,-5.88761 13.40625,-13.625002 l 0,-10.218747 -26.78125,0 0,-3.40625 26.78125,0 13.406254,0 c 7.792464,0 10.696254,-5.435408 13.406244,-13.59375 2.79933,-8.398886 2.68022,-16.475776 0,-27.25 -1.92578,-7.757441 -5.60387,-13.59375 -13.406244,-13.59375 l -10.062504,0 z m -15.0625,64.65625 c 2.779478,3e-6 5.03125,2.277417 5.03125,5.093747 -2e-6,2.826352 -2.251775,5.125002 -5.03125,5.125002 -2.76955,0 -5.03125,-2.29865 -5.03125,-5.125002 2e-6,-2.81633 2.261697,-5.093747 5.03125,-5.093747 z"/></svg>