<svg xmlns="http://www.w3.org/2000/svg" xmlns:svg="http://www.w3.org/2000/svg" id="svg2" width="298.547" height="279.625" version="1.1" viewBox="0 0 223.91 209.719"><metadata id="metadata270"/><defs id="defs4"><clipPath id="clip1"><path id="path7" d="m 0,0 290,0 0,251.73047 -290,0 z m 0,0"/></clipPath><clipPath id="clip2"><path id="path10" d="m 0,79 162,0 0,172.73047 -162,0 z m 0,0"/></clipPath><clipPath id="clip3"><path id="path13" d="m 48,149 219,0 0,102.73047 -219,0 z m 0,0"/></clipPath><clipPath id="clip4"><path id="path16" d="m 48,115 195,0 0,136.73047 -195,0 z m 0,0"/></clipPath><clipPath id="clip5"><path id="path19" d="m 24,71 138,0 0,180.73047 -138,0 z m 0,0"/></clipPath><clipPath id="clip6"><path id="path22" d="m 129,0 161.33984,0 0,164 L 129,164 Z m 0,0"/></clipPath><clipPath id="clip7"><path id="path25" d="m 153,50 137.33984,0 0,201.73047 -137.33984,0 z m 0,0"/></clipPath><clipPath id="clip8"><path id="path28" d="m 129,50 161.33984,0 0,178 L 129,228 Z m 0,0"/></clipPath><clipPath id="clip9"><path id="path31" d="m 114,2 176.33984,0 0,162 L 114,164 Z m 0,0"/></clipPath><clipPath id="clip10"><path id="path34" d="m 129,0 161.33984,0 0,164 L 129,164 Z m 0,0"/></clipPath><clipPath id="clip11"><path id="path37" d="m 0,79 162,0 0,172.73047 -162,0 z m 0,0"/></clipPath><clipPath id="clip12"><path id="path40" d="m 48,149 219,0 0,102.73047 -219,0 z m 0,0"/></clipPath><clipPath id="clip13"><path id="path43" d="m 153,50 137.33984,0 0,201.73047 -137.33984,0 z m 0,0"/></clipPath><clipPath id="clip14"><path id="path46" d="m 129,115 138,0 0,136.73047 -138,0 z m 0,0"/></clipPath><clipPath id="clip15"><path id="path49" d="m 48,115 195,0 0,136.73047 -195,0 z m 0,0"/></clipPath><clipPath id="clip16"><path id="path52" d="m 129,50 161.33984,0 0,178 L 129,228 Z m 0,0"/></clipPath><clipPath id="clip17"><path id="path55" d="m 129,115 138,0 0,136.73047 -138,0 z m 0,0"/></clipPath><clipPath id="clip18"><path id="path58" d="m 114,2 176.33984,0 0,162 L 114,164 Z m 0,0"/></clipPath><clipPath id="clip19"><path id="path61" d="m 24,71 138,0 0,180.73047 -138,0 z m 0,0"/></clipPath></defs><path id="path68" d="M 72.324285,55.050854 87.316479,167.41023" style="fill:none;stroke:#fc0;stroke-width:1.99255002;stroke-linecap:butt;stroke-linejoin:miter;stroke-miterlimit:10;stroke-dasharray:3.9851,3.98510000000000009;stroke-opacity:.99346403"/><path id="path70" d="M 72.324285,55.050854 177.15242,98.253989" style="fill:none;stroke:#fc0;stroke-width:1.99255002;stroke-linecap:butt;stroke-linejoin:miter;stroke-miterlimit:10;stroke-dasharray:3.9851,3.98510000000000009;stroke-opacity:.99346403"/><path id="path72" d="M 72.324285,55.050854 47.918035,20.472729" style="fill:none;stroke:#fc0;stroke-width:1.99255002;stroke-linecap:butt;stroke-linejoin:miter;stroke-miterlimit:10;stroke-dasharray:3.9851,3.98510000000000009;stroke-opacity:.99346403"/><path id="path74" d="M 72.324285,55.050854 152.80476,7.445384" style="fill:none;stroke:#fc0;stroke-width:1.99255002;stroke-linecap:butt;stroke-linejoin:miter;stroke-miterlimit:10;stroke-dasharray:3.9851,3.98510000000000009;stroke-opacity:.99346403"/><path id="path76" d="M 72.324285,55.050854 7.445385,119.33601" style="fill:none;stroke:#fc0;stroke-width:1.99255002;stroke-linecap:butt;stroke-linejoin:miter;stroke-miterlimit:10;stroke-dasharray:3.9851,3.98510000000000009;stroke-opacity:.99346403"/><path id="path78" d="M 87.316479,167.41023 72.324285,55.050854" style="fill:none;stroke:#fc0;stroke-width:1.99255002;stroke-linecap:butt;stroke-linejoin:miter;stroke-miterlimit:10;stroke-dasharray:3.9851,3.98510000000000009;stroke-opacity:.99346403"/><path id="path80" d="M 87.316479,167.41023 177.15242,98.253989" style="fill:none;stroke:#fc0;stroke-width:1.99255002;stroke-linecap:butt;stroke-linejoin:miter;stroke-miterlimit:10;stroke-dasharray:3.9851,3.98510000000000009;stroke-opacity:.99346403"/><path id="path82" d="M 87.316479,167.41023 72.175855,202.27351" style="fill:none;stroke:#fc0;stroke-width:1.99255002;stroke-linecap:butt;stroke-linejoin:miter;stroke-miterlimit:10;stroke-dasharray:3.9851,3.98510000000000009;stroke-opacity:.99346403"/><path id="path84" d="M 87.316479,167.41023 7.445385,119.33601" style="fill:none;stroke:#fc0;stroke-width:1.99255002;stroke-linecap:butt;stroke-linejoin:miter;stroke-miterlimit:10;stroke-dasharray:3.9851,3.98510000000000009;stroke-opacity:.99346403"/><path id="path86" d="m 87.316479,167.41023 89.742191,21.83594" style="fill:none;stroke:#fc0;stroke-width:1.99255002;stroke-linecap:butt;stroke-linejoin:miter;stroke-miterlimit:10;stroke-dasharray:3.9851,3.98510000000000009;stroke-opacity:.99346403"/><path id="path88" d="M 177.15242,98.253989 72.324285,55.050854" style="fill:none;stroke:#fc0;stroke-width:1.99255002;stroke-linecap:butt;stroke-linejoin:miter;stroke-miterlimit:10;stroke-dasharray:3.9851,3.98510000000000009;stroke-opacity:.99346403"/><path id="path90" d="M 177.15242,98.253989 87.316479,167.41023" style="fill:none;stroke:#fc0;stroke-width:1.99255002;stroke-linecap:butt;stroke-linejoin:miter;stroke-miterlimit:10;stroke-dasharray:3.9851,3.98510000000000009;stroke-opacity:.99346403"/><path id="path92" d="m 177.15242,98.253989 40.3789,-7.87109" style="fill:none;stroke:#fc0;stroke-width:1.99255002;stroke-linecap:butt;stroke-linejoin:miter;stroke-miterlimit:10;stroke-dasharray:3.9851,3.98510000000000009;stroke-opacity:.99346403"/><path id="path94" d="M 177.15242,98.253989 152.80476,7.445384" style="fill:none;stroke:#fc0;stroke-width:1.99255002;stroke-linecap:butt;stroke-linejoin:miter;stroke-miterlimit:10;stroke-dasharray:3.9851,3.98510000000000009;stroke-opacity:.99346403"/><path id="path96" d="m 177.15242,98.253989 -0.0937,90.992181" style="fill:none;stroke:#fc0;stroke-width:1.99255002;stroke-linecap:butt;stroke-linejoin:miter;stroke-miterlimit:10;stroke-dasharray:3.9851,3.98510000000000009;stroke-opacity:.99346403"/><path id="path98" d="M 72.175855,202.27351 87.316479,167.41023" style="fill:none;stroke:#fc0;stroke-width:1.99255002;stroke-linecap:butt;stroke-linejoin:miter;stroke-miterlimit:10;stroke-dasharray:3.9851,3.98510000000000009;stroke-opacity:.99346403"/><path id="path100" d="m 217.53132,90.382899 -40.3789,7.87109" style="fill:none;stroke:#fc0;stroke-width:1.99255002;stroke-linecap:butt;stroke-linejoin:miter;stroke-miterlimit:10;stroke-dasharray:3.9851,3.98510000000000009;stroke-opacity:.99346403"/><path id="path102" d="m 47.918035,20.472729 24.40625,34.578125" style="fill:none;stroke:#fc0;stroke-width:1.99255002;stroke-linecap:butt;stroke-linejoin:miter;stroke-miterlimit:10;stroke-dasharray:3.9851,3.98510000000000009;stroke-opacity:.99346403"/><path id="path104" d="M 152.80476,7.445384 72.324285,55.050854" style="fill:none;stroke:#fc0;stroke-width:1.99255002;stroke-linecap:butt;stroke-linejoin:miter;stroke-miterlimit:10;stroke-dasharray:3.9851,3.98510000000000009;stroke-opacity:.99346403"/><path id="path106" d="m 152.80476,7.445384 24.34766,90.808605" style="fill:none;stroke:#fc0;stroke-width:1.99255002;stroke-linecap:butt;stroke-linejoin:miter;stroke-miterlimit:10;stroke-dasharray:3.9851,3.98510000000000009;stroke-opacity:.99346403"/><path id="path108" d="m 7.445385,119.33601 64.8789,-64.285156" style="fill:none;stroke:#fc0;stroke-width:1.99255002;stroke-linecap:butt;stroke-linejoin:miter;stroke-miterlimit:10;stroke-dasharray:3.9851,3.98510000000000009;stroke-opacity:.99346403"/><path id="path110" d="m 7.445385,119.33601 79.871094,48.07422" style="fill:none;stroke:#fc0;stroke-width:1.99255002;stroke-linecap:butt;stroke-linejoin:miter;stroke-miterlimit:10;stroke-dasharray:3.9851,3.98510000000000009;stroke-opacity:.99346403"/><path id="path112" d="M 177.05867,189.24617 87.316479,167.41023" style="fill:none;stroke:#fc0;stroke-width:1.99255002;stroke-linecap:butt;stroke-linejoin:miter;stroke-miterlimit:10;stroke-dasharray:3.9851,3.98510000000000009;stroke-opacity:.99346403"/><path id="path114" d="m 177.05867,189.24617 0.0937,-90.992181" style="fill:none;stroke:#fc0;stroke-width:1.99255002;stroke-linecap:butt;stroke-linejoin:miter;stroke-miterlimit:10;stroke-dasharray:3.9851,3.98510000000000009;stroke-opacity:.99346403"/><path id="path116" d="m 79.371169,55.050854 c 0,-3.890625 -3.15625,-7.046875 -7.046884,-7.046875 -3.89062,0 -7.04296,3.15625 -7.04296,7.046875 0,3.890625 3.15234,7.046875 7.04296,7.046875 3.890634,0 7.046884,-3.15625 7.046884,-7.046875 z m 0,0" style="fill:none;fill-opacity:1;fill-rule:nonzero;stroke:#fc0;stroke-width:.79701;stroke-linecap:butt;stroke-linejoin:miter;stroke-miterlimit:10;stroke-opacity:.99346403"/><path id="path118" d="m 94.363359,167.41023 c 0,-3.89062 -3.15235,-7.04687 -7.04688,-7.04687 -3.89062,0 -7.04297,3.15625 -7.04297,7.04687 0,3.89063 3.15235,7.04688 7.04297,7.04688 3.89453,0 7.04688,-3.15625 7.04688,-7.04688 z m 0,0" style="fill:none;fill-opacity:1;fill-rule:nonzero;stroke:#fc0;stroke-width:.79701;stroke-linecap:butt;stroke-linejoin:miter;stroke-miterlimit:10;stroke-opacity:.99346403"/><path id="path120" d="m 184.19929,98.253989 c 0,-3.89062 -3.15625,-7.04297 -7.04687,-7.04297 -3.89063,0 -7.04297,3.15235 -7.04297,7.04297 0,3.894531 3.15234,7.046881 7.04297,7.046881 3.89062,0 7.04687,-3.15235 7.04687,-7.046881 z m 0,0" style="fill:none;fill-opacity:1;fill-rule:nonzero;stroke:#fc0;stroke-width:.79701;stroke-linecap:butt;stroke-linejoin:miter;stroke-miterlimit:10;stroke-opacity:.99346403"/><path id="path122" d="m 152.65242,154.66804 64.8789,-64.285141 -40.47265,98.863271 z m 0,0" style="fill:none;fill-opacity:.5;fill-rule:nonzero;stroke:#fc0;stroke-opacity:.99346403"/><path id="path124" d="M 152.65242,154.66804 72.175855,202.27351 177.05867,189.24617 Z m 0,0" style="fill:none;fill-opacity:.5;fill-rule:nonzero;stroke:#fc0;stroke-opacity:.99346403"/><path id="path126" d="M 137.66023,42.308666 217.53132,90.382899 152.80476,7.445384 Z m 0,0" style="fill:none;fill-opacity:.5;fill-rule:nonzero;stroke:#fc0;stroke-opacity:.99346403"/><path id="path128" d="m 137.66023,42.308666 79.87109,48.074233 -64.8789,64.285141 z m 0,0" style="fill:none;fill-opacity:.5;fill-rule:nonzero;stroke:#fc0;stroke-opacity:.99346403"/><path id="path130" d="m 47.824285,111.46101 24.35157,90.8125 80.476565,-47.60547 z m 0,0" style="fill:none;fill-opacity:.5;fill-rule:nonzero;stroke:#fc0;stroke-opacity:.99346403"/><path id="path132" d="m 47.824285,111.46101 24.35157,90.8125 -64.73047,-82.9375 z m 0,0" style="fill:none;fill-opacity:.5;fill-rule:nonzero;stroke:#fc0;stroke-opacity:.99346403"/><path id="path134" d="M 47.824285,111.46101 152.65242,154.66804 137.66023,42.308666 Z m 0,0" style="fill:none;fill-opacity:.5;fill-rule:nonzero;stroke:#fc0;stroke-opacity:.99346403"/><path id="path136" d="m 47.824285,111.46101 0.0937,-90.988282 -40.47265,98.863282 z m 0,0" style="fill:none;fill-opacity:.5;fill-rule:nonzero;stroke:#fc0;stroke-opacity:.99346403"/><path id="path138" d="m 47.824285,111.46101 0.0937,-90.988282 89.742195,21.835938 z m 0,0" style="fill:none;fill-opacity:.5;fill-rule:nonzero;stroke:#fc0;stroke-opacity:.99346403"/><path id="path140" d="M 137.66023,42.308666 47.918035,20.472728 152.80476,7.445384 Z m 0,0" style="fill:none;fill-opacity:.5;fill-rule:nonzero;stroke:#fc0;stroke-opacity:.99346403"/><g style="clip-rule:nonzero;stroke:#fc0;stroke-opacity:.99346403;fill:none" id="g142" clip-path="url(#clip2)" transform="translate(-33.140554,-16.785085)"><path id="path144" d="m -40.312594,-97.414594 -64.730466,82.9375" transform="matrix(1,0,0,-1,145.629,121.644)" style="fill:none;stroke:#fc0;stroke-width:3.98510003;stroke-linecap:butt;stroke-linejoin:miter;stroke-miterlimit:10;stroke-opacity:.99346403"/></g><g style="clip-rule:nonzero;stroke:#fc0;stroke-opacity:.99346403;fill:none" id="g146" clip-path="url(#clip3)" transform="translate(-33.140554,-16.785085)"><path id="path148" d="M -40.312594,-97.414594 64.570219,-84.38725" transform="matrix(1,0,0,-1,145.629,121.644)" style="fill:none;stroke:#fc0;stroke-width:3.98510003;stroke-linecap:butt;stroke-linejoin:miter;stroke-miterlimit:10;stroke-opacity:.99346403"/></g><g style="clip-rule:nonzero;stroke:#fc0;stroke-opacity:.99346403;fill:none" id="g150" clip-path="url(#clip4)" transform="translate(-33.140554,-16.785085)"><path id="path152" d="m -40.312594,-97.414594 80.476563,47.605469" transform="matrix(1,0,0,-1,145.629,121.644)" style="fill:none;stroke:#fc0;stroke-width:3.98510003;stroke-linecap:butt;stroke-linejoin:miter;stroke-miterlimit:10;stroke-opacity:.99346403"/></g><g style="clip-rule:nonzero;stroke:#fc0;stroke-opacity:.99346403;fill:none" id="g154" clip-path="url(#clip5)" transform="translate(-33.140554,-16.785085)"><path id="path156" d="m -40.312594,-97.414594 -24.351562,90.8125" transform="matrix(1,0,0,-1,145.629,121.644)" style="fill:none;stroke:#fc0;stroke-width:3.98510003;stroke-linecap:butt;stroke-linejoin:miter;stroke-miterlimit:10;stroke-opacity:.99346403"/></g><g style="clip-rule:nonzero;stroke:#fc0;stroke-opacity:.99346403;fill:none" id="g158" clip-path="url(#clip6)" transform="translate(-33.140554,-16.785085)"><path id="path160" d="m 105.04287,14.476031 -64.726557,82.9375" transform="matrix(1,0,0,-1,145.629,121.644)" style="fill:none;stroke:#fc0;stroke-width:3.98510003;stroke-linecap:butt;stroke-linejoin:miter;stroke-miterlimit:10;stroke-opacity:.99346403"/></g><g style="clip-rule:nonzero;stroke:#fc0;stroke-opacity:.99346403;fill:none" id="g162" clip-path="url(#clip7)" transform="translate(-33.140554,-16.785085)"><path id="path164" d="M 105.04287,14.476031 64.570219,-84.38725" transform="matrix(1,0,0,-1,145.629,121.644)" style="fill:none;stroke:#fc0;stroke-width:3.98510003;stroke-linecap:butt;stroke-linejoin:miter;stroke-miterlimit:10;stroke-opacity:.99346403"/></g><g style="clip-rule:nonzero;stroke:#fc0;stroke-opacity:.99346403;fill:none" id="g166" clip-path="url(#clip8)" transform="translate(-33.140554,-16.785085)"><path id="path168" d="M 105.04287,14.476031 40.163969,-49.809125" transform="matrix(1,0,0,-1,145.629,121.644)" style="fill:none;stroke:#fc0;stroke-width:3.98510003;stroke-linecap:butt;stroke-linejoin:miter;stroke-miterlimit:10;stroke-opacity:.99346403"/></g><g style="clip-rule:nonzero;stroke:#fc0;stroke-opacity:.99346403;fill:none" id="g170" clip-path="url(#clip9)" transform="translate(-33.140554,-16.785085)"><path id="path172" d="M 105.04287,14.476031 25.171781,62.55025" transform="matrix(1,0,0,-1,145.629,121.644)" style="fill:none;stroke:#fc0;stroke-width:3.98510003;stroke-linecap:butt;stroke-linejoin:miter;stroke-miterlimit:10;stroke-opacity:.99346403"/></g><path id="path174" d="M 47.918035,20.472729 152.80476,7.445384" style="fill:none;stroke:#fc0;stroke-width:3.98510003;stroke-linecap:butt;stroke-linejoin:miter;stroke-miterlimit:10;stroke-opacity:.99346403"/><path id="path176" d="M 47.918035,20.472729 7.445385,119.33601" style="fill:none;stroke:#fc0;stroke-width:3.98510003;stroke-linecap:butt;stroke-linejoin:miter;stroke-miterlimit:10;stroke-opacity:.99346403"/><path id="path178" d="M 47.918035,20.472729 137.66023,42.308666" style="fill:none;stroke:#fc0;stroke-width:3.98510003;stroke-linecap:butt;stroke-linejoin:miter;stroke-miterlimit:10;stroke-opacity:.99346403"/><path id="path180" d="m 47.918035,20.472729 -0.0937,90.988281" style="fill:none;stroke:#fc0;stroke-width:3.98510003;stroke-linecap:butt;stroke-linejoin:miter;stroke-miterlimit:10;stroke-opacity:.99346403"/><g style="clip-rule:nonzero;stroke:#fc0;stroke-opacity:.99346403;fill:none" id="g182" clip-path="url(#clip10)" transform="translate(-33.140554,-16.785085)"><path id="path184" d="m 40.316313,97.413531 64.726557,-82.9375" transform="matrix(1,0,0,-1,145.629,121.644)" style="fill:none;stroke:#fc0;stroke-width:3.98510003;stroke-linecap:butt;stroke-linejoin:miter;stroke-miterlimit:10;stroke-opacity:.99346403"/></g><path id="path186" d="M 152.80476,7.445384 47.918035,20.472729" style="fill:none;stroke:#fc0;stroke-width:3.98510003;stroke-linecap:butt;stroke-linejoin:miter;stroke-miterlimit:10;stroke-opacity:.99346403"/><path id="path188" d="M 152.80476,7.445384 137.66023,42.308666" style="fill:none;stroke:#fc0;stroke-width:3.98510003;stroke-linecap:butt;stroke-linejoin:miter;stroke-miterlimit:10;stroke-opacity:.99346403"/><g style="clip-rule:nonzero;stroke:#fc0;stroke-opacity:.99346403;fill:none" id="g190" clip-path="url(#clip11)" transform="translate(-33.140554,-16.785085)"><path id="path192" d="m -105.04306,-14.477094 64.730466,-82.9375" transform="matrix(1,0,0,-1,145.629,121.644)" style="fill:none;stroke:#fc0;stroke-width:3.98510003;stroke-linecap:butt;stroke-linejoin:miter;stroke-miterlimit:10;stroke-opacity:.99346403"/></g><path id="path194" d="M 7.445385,119.33601 47.918035,20.472729" style="fill:none;stroke:#fc0;stroke-width:3.98510003;stroke-linecap:butt;stroke-linejoin:miter;stroke-miterlimit:10;stroke-opacity:.99346403"/><path id="path196" d="m 7.445385,119.33601 40.3789,-7.875" style="fill:none;stroke:#fc0;stroke-width:3.98510003;stroke-linecap:butt;stroke-linejoin:miter;stroke-miterlimit:10;stroke-opacity:.99346403"/><g style="clip-rule:nonzero;stroke:#fc0;stroke-opacity:.99346403;fill:none" id="g198" clip-path="url(#clip12)" transform="translate(-33.140554,-16.785085)"><path id="path200" d="M 64.570219,-84.38725 -40.312594,-97.414594" transform="matrix(1,0,0,-1,145.629,121.644)" style="fill:none;stroke:#fc0;stroke-width:3.98510003;stroke-linecap:butt;stroke-linejoin:miter;stroke-miterlimit:10;stroke-opacity:.99346403"/></g><g style="clip-rule:nonzero;stroke:#fc0;stroke-opacity:.99346403;fill:none" id="g202" clip-path="url(#clip13)" transform="translate(-33.140554,-16.785085)"><path id="path204" d="M 64.570219,-84.38725 105.04287,14.476031" transform="matrix(1,0,0,-1,145.629,121.644)" style="fill:none;stroke:#fc0;stroke-width:3.98510003;stroke-linecap:butt;stroke-linejoin:miter;stroke-miterlimit:10;stroke-opacity:.99346403"/></g><g style="clip-rule:nonzero;stroke:#fc0;stroke-opacity:.99346403;fill:none" id="g206" clip-path="url(#clip14)" transform="translate(-33.140554,-16.785085)"><path id="path208" d="m 64.570219,-84.38725 -24.40625,34.578125" transform="matrix(1,0,0,-1,145.629,121.644)" style="fill:none;stroke:#fc0;stroke-width:3.98510003;stroke-linecap:butt;stroke-linejoin:miter;stroke-miterlimit:10;stroke-opacity:.99346403"/></g><g style="clip-rule:nonzero;stroke:#fc0;stroke-opacity:.99346403;fill:none" id="g210" clip-path="url(#clip15)" transform="translate(-33.140554,-16.785085)"><path id="path212" d="M 40.163969,-49.809125 -40.312594,-97.414594" transform="matrix(1,0,0,-1,145.629,121.644)" style="fill:none;stroke:#fc0;stroke-width:3.98510003;stroke-linecap:butt;stroke-linejoin:miter;stroke-miterlimit:10;stroke-opacity:.99346403"/></g><g style="clip-rule:nonzero;stroke:#fc0;stroke-opacity:.99346403;fill:none" id="g214" clip-path="url(#clip16)" transform="translate(-33.140554,-16.785085)"><path id="path216" d="M 40.163969,-49.809125 105.04287,14.476031" transform="matrix(1,0,0,-1,145.629,121.644)" style="fill:none;stroke:#fc0;stroke-width:3.98510003;stroke-linecap:butt;stroke-linejoin:miter;stroke-miterlimit:10;stroke-opacity:.99346403"/></g><g style="clip-rule:nonzero;stroke:#fc0;stroke-opacity:.99346403;fill:none" id="g218" clip-path="url(#clip17)" transform="translate(-33.140554,-16.785085)"><path id="path220" d="M 40.163969,-49.809125 64.570219,-84.38725" transform="matrix(1,0,0,-1,145.629,121.644)" style="fill:none;stroke:#fc0;stroke-width:3.98510003;stroke-linecap:butt;stroke-linejoin:miter;stroke-miterlimit:10;stroke-opacity:.99346403"/></g><path id="path222" d="M 152.65242,154.66804 137.66023,42.308666" style="fill:none;stroke:#fc0;stroke-width:3.98510003;stroke-linecap:butt;stroke-linejoin:miter;stroke-miterlimit:10;stroke-opacity:.99346403"/><path id="path224" d="M 152.65242,154.66804 47.824285,111.46101" style="fill:none;stroke:#fc0;stroke-width:3.98510003;stroke-linecap:butt;stroke-linejoin:miter;stroke-miterlimit:10;stroke-opacity:.99346403"/><g style="clip-rule:nonzero;stroke:#fc0;stroke-opacity:.99346403;fill:none" id="g226" clip-path="url(#clip18)" transform="translate(-33.140554,-16.785085)"><path id="path228" d="M 25.171781,62.55025 105.04287,14.476031" transform="matrix(1,0,0,-1,145.629,121.644)" style="fill:none;stroke:#fc0;stroke-width:3.98510003;stroke-linecap:butt;stroke-linejoin:miter;stroke-miterlimit:10;stroke-opacity:.99346403"/></g><path id="path230" d="M 137.66023,42.308666 47.918035,20.472729" style="fill:none;stroke:#fc0;stroke-width:3.98510003;stroke-linecap:butt;stroke-linejoin:miter;stroke-miterlimit:10;stroke-opacity:.99346403"/><path id="path232" d="M 137.66023,42.308666 152.80476,7.445384" style="fill:none;stroke:#fc0;stroke-width:3.98510003;stroke-linecap:butt;stroke-linejoin:miter;stroke-miterlimit:10;stroke-opacity:.99346403"/><path id="path234" d="M 137.66023,42.308666 152.65242,154.66804" style="fill:none;stroke:#fc0;stroke-width:3.98510003;stroke-linecap:butt;stroke-linejoin:miter;stroke-miterlimit:10;stroke-opacity:.99346403"/><path id="path236" d="M 137.66023,42.308666 47.824285,111.46101" style="fill:none;stroke:#fc0;stroke-width:3.98510003;stroke-linecap:butt;stroke-linejoin:miter;stroke-miterlimit:10;stroke-opacity:.99346403"/><g style="clip-rule:nonzero;stroke:#fc0;stroke-opacity:.99346403;fill:none" id="g238" clip-path="url(#clip19)" transform="translate(-33.140554,-16.785085)"><path id="path240" d="m -64.664156,-6.602094 24.351562,-90.8125" transform="matrix(1,0,0,-1,145.629,121.644)" style="fill:none;stroke:#fc0;stroke-width:3.98510003;stroke-linecap:butt;stroke-linejoin:miter;stroke-miterlimit:10;stroke-opacity:.99346403"/></g><path id="path242" d="m 47.824285,111.46101 0.0937,-90.988281" style="fill:none;stroke:#fc0;stroke-width:3.98510003;stroke-linecap:butt;stroke-linejoin:miter;stroke-miterlimit:10;stroke-opacity:.99346403"/><path id="path244" d="m 47.824285,111.46101 -40.3789,7.875" style="fill:none;stroke:#fc0;stroke-width:3.98510003;stroke-linecap:butt;stroke-linejoin:miter;stroke-miterlimit:10;stroke-opacity:.99346403"/><path id="path246" d="M 47.824285,111.46101 152.65242,154.66804" style="fill:none;stroke:#fc0;stroke-width:3.98510003;stroke-linecap:butt;stroke-linejoin:miter;stroke-miterlimit:10;stroke-opacity:.99346403"/><path id="path248" d="M 47.824285,111.46101 137.66023,42.308666" style="fill:none;stroke:#fc0;stroke-width:3.98510003;stroke-linecap:butt;stroke-linejoin:miter;stroke-miterlimit:10;stroke-opacity:.99346403"/><path id="path250" d="m 79.218829,202.27351 c 0,-3.89062 -3.15235,-7.04297 -7.042974,-7.04297 -3.89453,0 -7.04688,3.15235 -7.04688,7.04297 0,3.89063 3.15235,7.04688 7.04688,7.04688 3.890624,0 7.042974,-3.15625 7.042974,-7.04688 z m 0,0" style="fill:none;fill-opacity:1;fill-rule:nonzero;stroke:#fc0;stroke-width:.79701;stroke-linecap:butt;stroke-linejoin:miter;stroke-miterlimit:10;stroke-opacity:.99346403"/><path id="path252" d="m 223.51154,89.316239 c 0,-3.89064 -3.15625,-7.04689 -7.04688,-7.04689 -3.89062,0 -7.04296,3.15625 -7.04296,7.04689 0,3.89062 3.15234,7.04297 7.04296,7.04297 3.89063,0 7.04688,-3.15235 7.04688,-7.04297 z m 0,0" style="fill:none;fill-opacity:1;fill-rule:nonzero;stroke:#fc0;stroke-width:.79701;stroke-linecap:butt;stroke-linejoin:miter;stroke-miterlimit:10;stroke-opacity:.99346403"/><path id="path254" d="m 54.961005,20.472729 c 0,-3.890626 -3.15234,-7.046876 -7.04297,-7.046876 -3.89453,0 -7.04687,3.15625 -7.04687,7.046876 0,3.890625 3.15234,7.042968 7.04687,7.042968 3.89063,0 7.04297,-3.152343 7.04297,-7.042968 z m 0,0" style="fill:none;fill-opacity:1;fill-rule:nonzero;stroke:#fc0;stroke-width:.79701;stroke-linecap:butt;stroke-linejoin:miter;stroke-miterlimit:10;stroke-opacity:.99346403"/><path id="path256" d="m 159.84773,7.445384 c 0,-3.894529 -3.15234,-7.046879 -7.04297,-7.046879 -3.89453,0 -7.04687,3.15235 -7.04687,7.046879 0,3.890625 3.15234,7.042969 7.04687,7.042969 3.89063,0 7.04297,-3.152344 7.04297,-7.042969 z m 0,0" style="fill:none;fill-opacity:1;fill-rule:nonzero;stroke:#fc0;stroke-width:.79701;stroke-linecap:butt;stroke-linejoin:miter;stroke-miterlimit:10;stroke-opacity:.99346403"/><path id="path258" d="m 14.488345,119.33601 c 0,-3.89062 -3.15234,-7.04687 -7.04296,-7.04687 -3.89063,0 -7.04688,3.15625 -7.04688,7.04687 0,3.89063 3.15625,7.04688 7.04688,7.04688 3.89062,0 7.04296,-3.15625 7.04296,-7.04688 z m 0,0" style="fill:none;fill-opacity:1;fill-rule:nonzero;stroke:#fc0;stroke-width:.79701;stroke-linecap:butt;stroke-linejoin:miter;stroke-miterlimit:10;stroke-opacity:.99346403"/><path id="path260" d="m 184.10554,189.24617 c 0,-3.89063 -3.15234,-7.04688 -7.04687,-7.04688 -3.89063,0 -7.04297,3.15625 -7.04297,7.04688 0,3.89062 3.15234,7.04687 7.04297,7.04687 3.89453,0 7.04687,-3.15625 7.04687,-7.04687 z m 0,0" style="fill:none;fill-opacity:1;fill-rule:nonzero;stroke:#fc0;stroke-width:.79701;stroke-linecap:butt;stroke-linejoin:miter;stroke-miterlimit:10;stroke-opacity:.99346403"/><path id="path262" d="m 159.69539,154.66804 c 0,-3.89062 -3.15235,-7.04687 -7.04297,-7.04687 -3.89063,0 -7.04688,3.15625 -7.04688,7.04687 0,3.89063 3.15625,7.04297 7.04688,7.04297 3.89062,0 7.04297,-3.15234 7.04297,-7.04297 z m 0,0" style="fill:none;fill-opacity:1;fill-rule:nonzero;stroke:#fc0;stroke-width:.79701;stroke-linecap:butt;stroke-linejoin:miter;stroke-miterlimit:10;stroke-opacity:.99346403"/><path id="path264" d="m 144.7032,42.308666 c 0,-3.890625 -3.15234,-7.046875 -7.04297,-7.046875 -3.89453,0 -7.04687,3.15625 -7.04687,7.046875 0,3.890625 3.15234,7.042969 7.04687,7.042969 3.89063,0 7.04297,-3.152344 7.04297,-7.042969 z m 0,0" style="fill:none;fill-opacity:1;fill-rule:nonzero;stroke:#fc0;stroke-width:.79701;stroke-linecap:butt;stroke-linejoin:miter;stroke-miterlimit:10;stroke-opacity:.99346403"/><path id="path266" d="m 54.867255,111.46101 c 0,-3.89061 -3.15234,-7.04295 -7.04297,-7.04295 -3.89062,0 -7.04687,3.15234 -7.04687,7.04295 0,3.89063 3.15625,7.04688 7.04687,7.04688 3.89063,0 7.04297,-3.15625 7.04297,-7.04688 z m 0,0" style="fill:none;fill-opacity:1;fill-rule:nonzero;stroke:#fc0;stroke-width:.79701;stroke-linecap:butt;stroke-linejoin:miter;stroke-miterlimit:10;stroke-opacity:.99346403"/></svg>